<svg width="24" height="24" viewBox="0 0 24 24" fill="none" xmlns="http://www.w3.org/2000/svg">
<rect width="24" height="24" rx="4" fill="white"/>
<path d="M11 14V22H7C6.20435 22 5.44129 21.6839 4.87868 21.1213C4.31607 20.5587 4 19.7956 4 19V15C4 14.7348 4.10536 14.4804 4.29289 14.2929C4.48043 14.1053 4.73478 14 5 14H11ZM19 14C19.2652 14 19.5196 14.1053 19.7071 14.2929C19.8946 14.4804 20 14.7348 20 15V19C20 19.7956 19.6839 20.5587 19.1213 21.1213C18.5587 21.6839 17.7956 22 17 22H13V14H19ZM16.5 1.99998C17.0905 1.99985 17.6715 2.14914 18.1888 2.43394C18.706 2.71875 19.1429 3.1298 19.4586 3.62884C19.7743 4.12788 19.9586 4.69869 19.9943 5.28812C20.03 5.87755 19.9161 6.46644 19.663 6.99998H20C20.5304 6.99998 21.0391 7.21069 21.4142 7.58576C21.7893 7.96084 22 8.46954 22 8.99998V9.99998C22 10.5304 21.7893 11.0391 21.4142 11.4142C21.0391 11.7893 20.5304 12 20 12H13V6.99998H11V12H4C3.46957 12 2.96086 11.7893 2.58579 11.4142C2.21071 11.0391 2 10.5304 2 9.99998V8.99998C2 8.46954 2.21071 7.96084 2.58579 7.58576C2.96086 7.21069 3.46957 6.99998 4 6.99998H4.337C4.11488 6.53113 3.99977 6.01877 4 5.49998C4 3.56698 5.567 1.99998 7.483 1.99998C9.238 1.96998 10.795 3.09198 11.864 4.93398L12 5.17698C13.033 3.26298 14.56 2.06298 16.291 2.00198L16.5 1.99998ZM7.5 3.99998C7.10218 3.99998 6.72064 4.15801 6.43934 4.43932C6.15804 4.72062 6 5.10215 6 5.49998C6 5.8978 6.15804 6.27933 6.43934 6.56064C6.72064 6.84194 7.10218 6.99998 7.5 6.99998H10.643C9.902 5.09498 8.694 3.97998 7.5 3.99998ZM16.483 3.99998C15.303 3.97998 14.098 5.09598 13.357 6.99998H16.5C16.8978 6.99772 17.2785 6.83753 17.5582 6.55463C17.8379 6.27173 17.9938 5.8893 17.9915 5.49148C17.9892 5.09365 17.829 4.71302 17.5462 4.43331C17.2633 4.1536 16.8808 3.99772 16.483 3.99998Z" fill="#DC2626"/>
</svg>