<svg width="32" height="32" viewBox="0 0 128 128" fill="none" xmlns="http://www.w3.org/2000/svg"><g clip-path="url(#clip0_14_3)"><mask id="mask0_14_3" style="mask-type:alpha" maskUnits="userSpaceOnUse" x="0" y="0" width="128" height="128"><rect width="128" height="128" rx="20" fill="#020817"></rect></mask><g mask="url(#mask0_14_3)"><rect width="128" height="128" rx="20" fill="#020817"></rect><g opacity="0.25" clip-path="url(#clip1_14_3)"><path d="M0.25 25.75L25.75 0.25" stroke="white" stroke-width="12" stroke-linecap="round" stroke-linejoin="round"></path><path d="M8.75 -12.5L10.7178 -14.778C14.7034 -18.7631 20.1089 -21.0017 25.7451 -21.0013C31.3813 -21.0009 36.7865 -18.7615 40.7716 -14.7759C44.7567 -10.7902 46.9953 -5.38467 46.9949 0.251521C46.9945 5.88772 44.7552 11.2929 40.7695 15.278L38.5 17.25" stroke="white" stroke-width="12" stroke-linecap="round" stroke-linejoin="round"></path><path d="M17.25 38.5L15.5627 40.7695C11.5305 44.7568 6.0886 46.9931 0.41787 46.9931C-5.25286 46.9931 -10.6948 44.7568 -14.727 40.7695C-16.7145 38.8043 -18.2924 36.4643 -19.3692 33.8851C-20.4461 31.3059 -21.0006 28.5386 -21.0006 25.7436C-21.0006 22.9486 -20.4461 20.1814 -19.3692 17.6021C-18.2924 15.0229 -16.7145 12.6829 -14.727 10.7178L-12.5 8.75" stroke="white" stroke-width="12" stroke-linecap="round" stroke-linejoin="round"></path></g><g opacity="0.25" clip-path="url(#clip2_14_3)"><path d="M102.25 127.75L127.75 102.25" stroke="white" stroke-width="12" stroke-linecap="round" stroke-linejoin="round"></path><path d="M110.75 89.5L112.718 87.222C116.703 83.2369 122.109 80.9983 127.745 80.9987C133.381 80.9991 138.787 83.2385 142.772 87.2241C146.757 91.2098 148.995 96.6153 148.995 102.252C148.995 107.888 146.755 113.293 142.77 117.278L140.5 119.25" stroke="white" stroke-width="12" stroke-linecap="round" stroke-linejoin="round"></path><path d="M119.25 140.5L117.563 142.77C113.531 146.757 108.089 148.993 102.418 148.993C96.7471 148.993 91.3052 146.757 87.273 142.77C85.2855 140.804 83.7076 138.464 82.6308 135.885C81.5539 133.306 80.9994 130.539 80.9994 127.744C80.9994 124.949 81.5539 122.181 82.6308 119.602C83.7076 117.023 85.2855 114.683 87.273 112.718L89.5 110.75" stroke="white" stroke-width="12" stroke-linecap="round" stroke-linejoin="round"></path></g><g clip-path="url(#clip3_14_3)"><path d="M51.25 76.75L76.75 51.25" stroke="white" stroke-width="12" stroke-linecap="round" stroke-linejoin="round"></path><path d="M59.75 38.5L61.7178 36.222C65.7034 32.2369 71.1089 29.9983 76.7451 29.9987C82.3813 29.9991 87.7865 32.2385 91.7716 36.2241C95.7567 40.2098 97.9953 45.6153 97.9949 51.2515C97.9945 56.8877 95.7552 62.2929 91.7695 66.278L89.5 68.25" stroke="white" stroke-width="12" stroke-linecap="round" stroke-linejoin="round"></path><path d="M68.25 89.5L66.5627 91.7695C62.5305 95.7568 57.0886 97.9931 51.4179 97.9931C45.7471 97.9931 40.3052 95.7568 36.273 91.7695C34.2855 89.8043 32.7076 87.4643 31.6308 84.8851C30.5539 82.3059 29.9994 79.5386 29.9994 76.7436C29.9994 73.9486 30.5539 71.1814 31.6308 68.6021C32.7076 66.0229 34.2855 63.6829 36.273 61.7178L38.5 59.75" stroke="white" stroke-width="12" stroke-linecap="round" stroke-linejoin="round"></path></g></g></g><defs><clipPath id="clip0_14_3"><rect width="128" height="128" fill="white"></rect></clipPath><clipPath id="clip1_14_3"><rect width="102" height="102" fill="white" transform="translate(-38 -38)"></rect></clipPath><clipPath id="clip2_14_3"><rect width="102" height="102" fill="white" transform="translate(64 64)"></rect></clipPath><clipPath id="clip3_14_3"><rect width="102" height="102" fill="white" transform="translate(13 13)"></rect></clipPath></defs></svg>