<svg width="97" height="45" viewBox="0 0 97 45" fill="none" xmlns="http://www.w3.org/2000/svg">
<path d="M26.7166 24.693L26.7004 24.6311C26.6679 24.5072 26.6976 24.3892 26.7895 24.2769C26.8804 24.0767 27.084 23.7807 27.4004 23.3891C27.7168 22.9974 28.0128 22.6331 28.2884 22.2963C28.5716 21.9464 28.8066 21.5595 28.9932 21.1357C29.1799 20.7119 29.23 20.3349 29.1434 20.0047C29.111 19.8809 29.0483 19.8311 28.9555 19.8555C28.615 19.9447 28.1746 20.242 27.6344 20.7475C27.0915 21.2426 26.7324 21.5131 26.557 21.5591C26.3816 21.605 26.0557 21.4975 25.5792 21.2364C25.1001 20.965 24.8376 20.7415 24.7916 20.5661C24.7159 20.2772 24.8854 19.9351 25.3001 19.5397C25.712 19.1341 26.2086 18.7779 26.7899 18.4712C27.3787 18.1515 27.9105 17.9294 28.3851 17.8051C29.0661 17.6266 29.7191 17.7201 30.3442 18.0856C30.9796 18.4484 31.3689 18.9033 31.5122 19.4501C31.6555 19.997 31.5721 20.6253 31.2619 21.3351C30.9593 22.0319 30.5283 22.7017 29.969 23.3445C31.4974 23.2858 32.3913 23.7518 32.6509 24.7423C32.8158 25.3717 32.6118 26.0868 32.0387 26.8876C31.4732 27.6753 30.7206 28.3798 29.7807 29.001C28.8408 29.6222 27.9117 30.0531 26.9933 30.2938C25.879 30.5858 25.2582 30.4893 25.1311 30.0043C25.0608 29.7361 25.8827 29.0851 27.5967 28.0516C28.2366 27.6744 28.8009 27.2398 29.2895 26.7479C29.7884 26.2533 29.9906 25.8254 29.8959 25.4643C29.8446 25.2682 29.7022 25.1456 29.4688 25.0965C29.2327 25.0371 28.9816 25.0257 28.7155 25.0623C27.907 25.175 27.3597 25.1695 27.0737 25.046C26.8816 24.9861 26.7625 24.8684 26.7166 24.693ZM37.9713 14.251C38.2189 14.1862 38.6035 14.328 39.1248 14.6765C39.6435 15.0148 39.9542 15.3799 40.057 15.772C40.1083 15.9681 40.1414 16.8305 40.1561 18.3594C40.1708 19.8883 40.1812 20.8118 40.1874 21.13C40.2947 24.9061 40.1575 26.8442 39.7758 26.9442C39.5591 27.001 39.2828 26.9356 38.9469 26.7479C38.611 26.5602 38.4107 26.3426 38.3458 26.095C38.3323 26.0434 38.3266 26.0007 38.3288 25.9671C37.5187 27.0836 36.8866 27.7013 36.4326 27.8203C35.9889 27.9365 35.4934 27.8128 34.946 27.449C34.4061 27.0722 34.0849 26.6877 33.9821 26.2956C33.8794 25.9035 33.8174 25.4566 33.7962 24.955C33.7826 24.4403 33.819 23.8849 33.9055 23.2889C33.9919 22.6928 34.1187 22.1248 34.2859 21.5848C34.4608 21.0317 34.7154 20.5515 35.0497 20.1441C35.3916 19.7237 35.7844 19.4554 36.2281 19.3391C36.8885 19.1661 37.5181 19.3594 38.1169 19.9193C38.0332 17.3278 37.8757 15.6324 37.6441 14.833C37.563 14.5234 37.6721 14.3295 37.9713 14.251ZM36.1188 25.8019C36.3767 25.7343 36.7519 25.3989 37.2445 24.7957C37.7473 24.1898 38.0591 23.5071 38.1799 22.7477C38.1479 22.6678 38.0955 22.4886 38.0224 22.21C37.9494 21.9314 37.7876 21.6927 37.537 21.4937C37.2864 21.2947 37.0837 21.2155 36.9289 21.2561C36.6194 21.3372 36.3634 21.5807 36.161 21.9866C35.9689 22.3898 35.8498 22.84 35.8037 23.3373C35.7044 24.3888 35.7196 25.1622 35.8493 25.6575C35.871 25.74 35.8962 25.7941 35.9249 25.8196C35.9613 25.8321 36.0259 25.8262 36.1188 25.8019ZM48.2525 22.1261C48.0633 21.4038 48.0821 20.5498 48.309 19.5641C48.5359 18.5784 48.9345 17.6801 49.5048 16.869C50.0855 16.0552 50.7319 15.555 51.4438 15.3685C51.805 15.2738 52.2386 15.4138 52.7448 15.7884C53.2482 16.1527 53.5486 16.5206 53.6459 16.892C53.7162 17.1603 53.6276 17.3269 53.3799 17.3918C53.2561 17.4242 53.071 17.4121 52.8246 17.3554C52.5781 17.2987 52.3414 17.3 52.1144 17.3595C51.8874 17.419 51.6138 17.7002 51.2935 18.2032C50.9808 18.6931 50.731 19.2548 50.5441 19.8882C50.3648 20.5085 50.3158 20.9735 50.3969 21.283C50.478 21.5926 50.5875 21.7789 50.7253 21.842C50.8735 21.9025 51.1745 21.8732 51.6285 21.7542C52.0929 21.6325 52.4999 21.4818 52.8498 21.3019C53.2099 21.1193 53.4669 20.9637 53.6207 20.8352C53.782 20.6937 53.935 20.604 54.0794 20.5661C54.3683 20.4904 54.5452 20.5764 54.6101 20.824C54.7291 21.2781 54.4535 21.8465 53.7834 22.5293C53.1106 23.2018 52.3769 23.6422 51.5824 23.8504C51.0768 23.9829 50.4259 23.8557 49.6299 23.4688C48.8414 23.069 48.3823 22.6214 48.2525 22.1261ZM55.3384 10.3948C55.2248 9.96145 55.3383 9.70015 55.6788 9.61093C55.9574 9.53792 56.3381 9.68627 56.8209 10.056C57.3037 10.4256 57.5884 10.7756 57.6749 11.1058C57.7615 11.436 57.8161 11.9179 57.8387 12.5515C57.8614 13.1851 57.8654 13.7684 57.8508 14.3016C57.8464 14.832 57.8253 15.5929 57.7873 16.5842C57.7466 17.5652 57.722 18.2498 57.7135 18.638C58.0273 17.1002 58.4434 15.8058 58.9619 14.7547C59.4907 13.7009 60.0079 13.1078 60.5135 12.9753C60.8334 12.8915 61.2741 13.0792 61.8355 13.5386C62.3942 13.9876 62.7331 14.4391 62.8521 14.8931C62.9683 15.3368 63.0561 16.0085 63.1154 16.9082C63.1748 17.8079 63.1022 18.709 62.8976 19.6117C62.6931 20.5144 62.3741 21.0225 61.9408 21.136C61.6003 21.2253 61.3665 21.0274 61.2394 20.5424C61.1475 20.1916 61.1006 19.5919 61.0988 18.7433C61.087 17.4783 61.0474 16.7168 60.9798 16.4589C60.9122 16.2009 60.8371 16.0828 60.7546 16.1044C60.1561 16.2612 59.54 17.4867 58.9062 19.781C58.6925 20.5648 58.4948 21.1569 58.3131 21.5574C58.1416 21.9551 57.9373 22.1851 57.6999 22.2473C57.4626 22.3095 57.1237 22.1943 56.6832 21.9018C56.2529 21.6065 56.0108 21.3557 55.9567 21.1493C55.8999 20.9327 55.8587 20.6071 55.8331 20.1728C55.8178 19.7357 55.7978 19.1124 55.7732 18.3029C55.7588 17.4907 55.6957 16.0296 55.5839 13.9197C55.4797 11.7968 55.3979 10.6218 55.3384 10.3948ZM70.7825 13.3774C70.915 13.883 70.6883 14.4276 70.1024 15.0112C69.5268 15.592 68.8779 15.9771 68.1556 16.1664C67.4334 16.3556 66.8265 16.4595 66.3352 16.478C66.3153 16.7809 66.3419 17.0717 66.4149 17.3503C66.4879 17.6289 66.587 17.8179 66.7124 17.9174C66.835 18.0066 67.082 18.0025 67.4535 17.9051C68.2273 17.7024 68.8688 17.4571 69.3778 17.1693C69.8971 16.8789 70.1671 16.7309 70.1877 16.7255C70.6108 16.6147 70.8588 16.6985 70.9318 16.9771C71.0373 17.3795 70.802 17.8492 70.2259 18.3861C69.6602 18.9203 68.9388 19.3023 68.0617 19.5321C67.195 19.7592 66.4269 19.6683 65.7573 19.2593C65.0878 18.8503 64.6557 18.2744 64.461 17.5315C64.2636 16.7782 64.2748 15.9373 64.4946 15.0086C64.7247 14.0772 65.0982 13.2515 65.6153 12.5316C66.1297 11.8013 66.7119 11.3511 67.3619 11.1807C68.0223 11.0077 68.7163 11.1732 69.4438 11.6772C70.1686 12.1709 70.6148 12.7377 70.7825 13.3774ZM68.9222 13.6002C68.8952 13.4971 68.7476 13.3758 68.4796 13.2366C68.2115 13.0973 67.9795 13.0533 67.7834 13.1047C67.5977 13.1534 67.3917 13.3562 67.1655 13.7132C66.9365 14.0599 66.7447 14.4851 66.59 14.9888C66.6856 14.9747 66.8211 14.9448 66.9965 14.8988C68.4101 14.5284 69.052 14.0955 68.9222 13.6002ZM78.3398 11.3971C78.4723 11.9027 78.2456 12.4472 77.6597 13.0308C77.0842 13.6117 76.4353 13.9967 75.713 14.186C74.9907 14.3753 74.3839 14.4792 73.8925 14.4976C73.8727 14.8006 73.8992 15.0913 73.9722 15.3699C74.0452 15.6485 74.1444 15.8376 74.2697 15.9371C74.3923 16.0262 74.6393 16.0221 75.0108 15.9248C75.7847 15.722 76.4261 15.4767 76.9351 15.189C77.4545 14.8985 77.7244 14.7506 77.7451 14.7452C78.1681 14.6343 78.4162 14.7182 78.4892 14.9968C78.5946 15.3992 78.3593 15.8688 77.7833 16.4057C77.2175 16.9399 76.4961 17.3219 75.6191 17.5517C74.7523 17.7789 73.9842 17.6879 73.3147 17.279C72.6451 16.87 72.213 16.294 72.0183 15.5511C71.821 14.7979 71.8322 13.9569 72.0519 13.0282C72.282 12.0968 72.6556 11.2711 73.1727 10.5512C73.687 9.821 74.2692 9.37071 74.9193 9.20037C75.5796 9.02733 76.2736 9.19283 77.0011 9.69687C77.7259 10.1906 78.1722 10.7573 78.3398 11.3971ZM76.4795 11.6199C76.4525 11.5167 76.305 11.3955 76.0369 11.2562C75.7688 11.1169 75.5368 11.073 75.3407 11.1244C75.155 11.173 74.949 11.3759 74.7228 11.7329C74.4939 12.0796 74.3021 12.5047 74.1473 13.0084C74.2429 12.9944 74.3784 12.9644 74.5538 12.9184C75.9674 12.548 76.6093 12.1152 76.4795 11.6199ZM83.1462 7.06111C83.5383 6.95836 83.9861 7.08913 84.4895 7.45341C84.993 7.81769 85.2934 8.18556 85.3907 8.55702C85.4556 8.80466 85.3797 8.95687 85.163 9.01365C85.0392 9.0461 84.8465 9.04698 84.5848 9.0163C84.3204 8.97531 84.0644 8.98726 83.8168 9.05215C83.5795 9.11434 83.2451 9.29017 82.8137 9.57964C82.3927 9.8664 82.2173 10.1439 82.2876 10.4122C82.3146 10.5154 82.4931 10.6285 82.8231 10.7515C83.1531 10.8746 83.5102 10.996 83.8945 11.1159C84.2787 11.2357 84.6588 11.4449 85.0347 11.7433C85.408 12.0315 85.6514 12.3922 85.7649 12.8256C85.8758 13.2486 85.6733 13.7593 85.1574 14.3576C84.6519 14.9532 83.9761 15.3619 83.13 15.5836C82.2942 15.8026 81.5271 15.7996 80.8286 15.5747C80.13 15.3497 79.7281 15.036 79.6226 14.6336C79.5172 14.2312 79.6295 13.9867 79.9597 13.9002C80.0939 13.865 80.2673 13.8747 80.4801 13.9292C81.0744 14.0933 81.7534 14.0753 82.5169 13.8752C83.2908 13.6724 83.6507 13.4678 83.5966 13.2614C83.5425 13.0551 83.3334 12.8673 82.9693 12.6981C82.6128 12.5158 82.2307 12.3623 81.8231 12.2375C81.4258 12.1101 81.037 11.9308 80.6567 11.6997C80.284 11.4555 80.0584 11.1838 79.98 10.8846C79.834 10.3274 80.1814 9.59128 81.0222 8.67625C81.8604 7.7509 82.5684 7.21252 83.1462 7.06111ZM93.122 7.52351C93.2545 8.02911 93.0278 8.57369 92.4419 9.15726C91.8663 9.73813 91.2174 10.1232 90.4951 10.3125C89.7729 10.5017 89.166 10.6056 88.6747 10.6241C88.6548 10.927 88.6814 11.2178 88.7544 11.4964C88.8274 11.775 88.9265 11.964 89.0519 12.0635C89.1745 12.1527 89.4215 12.1486 89.793 12.0512C90.5668 11.8485 91.2083 11.6032 91.7173 11.3154C92.2366 11.025 92.5066 10.877 92.5272 10.8716C92.9503 10.7608 93.1983 10.8446 93.2713 11.1232C93.3768 11.5256 93.1415 11.9953 92.5654 12.5322C91.9997 13.0664 91.2783 13.4484 90.4012 13.6782C89.5345 13.9053 88.7664 13.8144 88.0968 13.4054C87.4273 12.9964 86.9952 12.4205 86.8005 11.6776C86.6031 10.9243 86.6143 10.0834 86.8341 9.15467C87.0642 8.22326 87.4377 7.39759 87.9548 6.67768C88.4692 5.94745 89.0514 5.49716 89.7014 5.32682C90.3618 5.15377 91.0558 5.31927 91.7833 5.82332C92.5081 6.31705 92.9543 6.88378 93.122 7.52351ZM91.2617 7.74634C91.2347 7.64316 91.0871 7.52193 90.8191 7.38266C90.551 7.2434 90.3189 7.19945 90.1229 7.25082C89.9372 7.29949 89.7312 7.50233 89.505 7.85933C89.276 8.20602 89.0842 8.6312 88.9295 9.13486C89.0251 9.12085 89.1606 9.09086 89.336 9.04489C90.7496 8.67447 91.3915 8.24162 91.2617 7.74634Z" fill="#5F481E"/>
<path d="M16.8833 31C9.8833 35 5.88344 37.6 1.88344 44M1.88344 44C2.71678 43.5 5.48344 42.8 9.88344 44M1.88344 44C1.21678 42.5 0.283443 38.9 1.88344 36.5" stroke="#5F481E" stroke-width="2" stroke-linecap="round" stroke-linejoin="round"/>
</svg>
