<svg width="155" height="155" viewBox="0 0 155 155" fill="none" xmlns="http://www.w3.org/2000/svg">
<rect width="155" height="155" fill="#22C55E"/>
<path d="M78.4388 111.96C75.6228 111.96 72.8068 111.736 69.9908 111.288C67.1748 110.904 64.5188 110.296 62.0228 109.464C59.5268 108.568 57.2868 107.48 55.3028 106.2C54.1508 105.432 53.3508 104.504 52.9028 103.416C52.4548 102.328 52.2948 101.272 52.4228 100.248C52.6148 99.16 53.0308 98.232 53.6708 97.464C54.3748 96.632 55.2388 96.12 56.2628 95.928C57.2868 95.736 58.4068 96.024 59.6228 96.792C62.4388 98.456 65.4148 99.672 68.5508 100.44C71.6868 101.208 74.9828 101.592 78.4388 101.592C83.4948 101.592 87.1748 100.76 89.4788 99.096C91.7828 97.368 92.9348 95.16 92.9348 92.472C92.9348 90.232 92.1028 88.472 90.4388 87.192C88.8388 85.912 86.0548 84.856 82.0868 84.024L71.5268 81.816C65.4468 80.536 60.9028 78.392 57.8948 75.384C54.9508 72.312 53.4788 68.28 53.4788 63.288C53.4788 60.152 54.1188 57.304 55.3988 54.744C56.6788 52.184 58.4708 49.976 60.7748 48.12C63.1428 46.264 65.9268 44.856 69.1268 43.896C72.3908 42.872 75.9748 42.36 79.8788 42.36C83.7188 42.36 87.3668 42.84 90.8228 43.8C94.2788 44.76 97.3828 46.168 100.135 48.024C101.159 48.728 101.831 49.592 102.151 50.616C102.535 51.64 102.631 52.664 102.439 53.688C102.247 54.648 101.799 55.48 101.095 56.184C100.391 56.888 99.4948 57.304 98.4067 57.432C97.3828 57.56 96.1988 57.24 94.8548 56.472C92.4868 55.128 90.0868 54.168 87.6548 53.592C85.2228 53.016 82.5988 52.728 79.7828 52.728C76.8388 52.728 74.3108 53.144 72.1988 53.976C70.0868 54.808 68.4548 55.992 67.3028 57.528C66.2148 59 65.6708 60.76 65.6708 62.808C65.6708 65.112 66.4388 66.968 67.9748 68.376C69.5108 69.72 72.1348 70.776 75.8468 71.544L86.3108 73.752C92.6468 75.096 97.3508 77.208 100.423 80.088C103.559 82.968 105.127 86.808 105.127 91.608C105.127 94.68 104.487 97.464 103.207 99.96C101.991 102.456 100.199 104.6 97.8308 106.392C95.5268 108.184 92.7428 109.56 89.4788 110.52C86.2148 111.48 82.5348 111.96 78.4388 111.96Z" fill="white"/>
</svg>